<svg width="2127" height="266" viewBox="0 0 2127 266" fill="none" xmlns="http://www.w3.org/2000/svg">
<g clip-path="url(#clip0)">
<path d="M375.197 92.8884C191.794 104.974 -55.4692 193.359 -55.4692 193.359V410.962H2126.95V193.359C2126.95 193.359 1867.99 92.8884 1740.38 92.8884C1405.65 92.8884 1256.48 264.423 923.249 229.939C691.105 205.916 608.094 77.5413 375.197 92.8884Z" fill="#845EC2" fill-opacity="0.3"/>
<path d="M667.18 128.911C401.468 150.601 -80.8032 197.037 -80.8032 197.037V456H2271.44L2354.01 197.037C2354.01 197.037 2244.23 99.457 2032.18 99.457C1754.31 99.457 1545.06 266.277 1268.43 230.815C1075.72 206.111 860.518 113.129 667.18 128.911Z" fill="#2591B4" fill-opacity="0.6"/>
<path d="M-24.053 0.761407C-248.931 12.8288 -549 193.687 -549 193.687V410.963H2126.95V168.889C2126.95 168.889 1977.59 205.303 1562.08 81.188C1292.83 0.761408 1059.63 264.644 651.045 230.212C366.403 206.225 261.511 -14.5626 -24.053 0.761407Z" fill="#2DC48D" fill-opacity="0.6"/>
</g>
<defs>
<clipPath id="clip0">
<rect width="2127" height="266" fill="white"/>
</clipPath>
</defs>
</svg>
