<svg width="567" height="567" viewBox="0 0 567 567" fill="none" xmlns="http://www.w3.org/2000/svg">
<path fill-rule="evenodd" clip-rule="evenodd" d="M283.188 0C126.787 0 0 126.787 0 283.188C0 439.588 126.787 566.375 283.188 566.375C439.588 566.375 566.375 439.588 566.375 283.188C566.375 126.787 439.588 0 283.188 0ZM135.955 234.548H200.131V427.371H135.955V234.548ZM204.353 174.9C203.937 155.994 190.417 141.594 168.462 141.594C146.508 141.594 132.155 155.994 132.155 174.9C132.155 193.415 146.084 208.23 167.629 208.23H168.039C190.417 208.23 204.353 193.415 204.353 174.9ZM357.676 230.024C399.907 230.024 431.567 257.589 431.567 316.816L431.564 427.375H367.39V324.214C367.39 298.303 358.104 280.621 334.871 280.621C317.141 280.621 306.581 292.541 301.942 304.054C300.246 308.18 299.829 313.929 299.829 319.692V427.38H235.645C235.645 427.38 236.491 252.65 235.645 234.557H299.829V261.869C308.347 248.739 323.602 230.024 357.676 230.024Z" fill="white"/>
</svg>
