<svg width="3877" height="1474" viewBox="0 0 3877 1474" fill="none" xmlns="http://www.w3.org/2000/svg">
<path fill-rule="evenodd" clip-rule="evenodd" d="M420.059 304.448C449.51 330.129 486.83 343.386 524.409 343.386C559.258 343.386 594.331 331.986 623.556 308.52L632.353 301.457H632.352C739.71 215.26 736.015 38.4331 735.805 30.9474L735.369 15.3759L720.257 11.5878C718.443 11.1343 675.225 0.456471 618.837 0.0125889C542.617 -0.555964 478.632 18.1433 433.75 54.1758L424.954 61.2396C391.923 87.7602 371.2 125.555 366.599 167.659C362.269 207.282 372.707 246.261 396.057 278.241C447.139 272.424 550.157 167.303 584.347 101.982C553.831 186.978 480.469 274.115 420.059 304.448Z" fill="white"/>
<path fill-rule="evenodd" clip-rule="evenodd" d="M11.8646 427.611C15.9574 431.095 102.457 503.678 198.219 503.678C210.713 503.678 223.374 502.443 236.021 499.655L244.839 497.712C314.186 482.43 358.604 414.503 345.338 345.196C306.703 335.361 204.75 378.278 161.875 413.703C208.544 362.829 286.324 323.179 337.847 319.985C314.136 262.197 251.485 227.944 188.436 241.837L179.619 243.78C70.0422 267.926 9.0598 397.845 6.51944 403.364L0 417.513L11.8646 427.611Z" fill="white"/>
<path d="M900.409 701.784C900.409 723.958 898.93 743.915 895.973 761.654H446.884C450.58 806.002 466.104 840.741 493.456 865.872C520.808 891.002 554.444 903.568 594.363 903.568C652.024 903.568 693.051 878.807 717.446 829.285H884.885C867.143 888.416 833.138 937.198 782.869 975.633C732.601 1013.33 670.874 1032.18 597.689 1032.18C538.55 1032.18 485.325 1019.24 438.013 993.373C391.441 966.764 354.849 929.437 328.236 881.394C302.362 833.35 289.426 777.915 289.426 715.089C289.426 651.523 302.362 595.718 328.236 547.675C354.109 499.631 390.332 462.674 436.904 436.805C483.477 410.935 537.072 398 597.689 398C656.089 398 708.206 410.565 754.039 435.696C800.611 460.826 836.464 496.674 861.598 543.24C887.472 589.066 900.409 641.914 900.409 701.784ZM739.624 657.436C738.884 617.523 724.469 585.74 696.378 562.088C668.287 537.696 633.912 525.501 593.254 525.501C554.813 525.501 522.287 537.327 495.674 560.979C469.801 583.892 453.907 616.045 447.993 657.436H739.624Z" fill="white"/>
<path d="M962.713 715.089C962.713 651.523 975.649 596.088 1001.52 548.783C1027.4 500.74 1063.25 463.783 1109.08 437.913C1154.92 411.304 1207.4 398 1266.54 398C1342.68 398 1405.52 417.217 1455.05 455.652C1505.32 493.348 1538.95 546.566 1555.95 615.305H1388.52C1379.64 588.697 1364.49 568.001 1343.05 553.218C1322.35 537.696 1296.48 529.935 1265.43 529.935C1221.08 529.935 1185.96 546.196 1160.09 578.718C1134.22 610.501 1121.28 655.958 1121.28 715.089C1121.28 773.48 1134.22 818.937 1160.09 851.459C1185.96 883.242 1221.08 899.133 1265.43 899.133C1328.27 899.133 1369.3 871.046 1388.52 814.872H1555.95C1538.95 881.394 1505.32 934.242 1455.05 973.416C1404.78 1012.59 1341.94 1032.18 1266.54 1032.18C1207.4 1032.18 1154.92 1019.24 1109.08 993.373C1063.25 966.764 1027.4 929.807 1001.52 882.502C975.649 834.459 962.713 778.654 962.713 715.089Z" fill="white"/>
<path d="M1931.37 1032.18C1872.23 1032.18 1819.01 1019.24 1771.7 993.373C1724.39 966.764 1687.05 929.437 1659.7 881.394C1633.09 833.35 1619.78 777.915 1619.78 715.089C1619.78 652.262 1633.46 596.827 1660.81 548.783C1688.9 500.74 1726.97 463.783 1775.02 437.913C1823.07 411.304 1876.67 398 1935.81 398C1994.95 398 2048.54 411.304 2096.59 437.913C2144.64 463.783 2182.35 500.74 2209.7 548.783C2237.79 596.827 2251.83 652.262 2251.83 715.089C2251.83 777.915 2237.42 833.35 2208.59 881.394C2180.5 929.437 2142.06 966.764 2093.27 993.373C2045.22 1019.24 1991.25 1032.18 1931.37 1032.18ZM1931.37 896.916C1959.46 896.916 1985.71 890.263 2010.1 876.959C2035.24 862.915 2055.2 842.22 2069.98 814.872C2084.77 787.524 2092.16 754.263 2092.16 715.089C2092.16 656.697 2076.63 611.979 2045.59 580.936C2015.28 549.153 1977.94 533.262 1933.59 533.262C1889.24 533.262 1851.9 549.153 1821.6 580.936C1792.03 611.979 1777.24 656.697 1777.24 715.089C1777.24 773.48 1791.66 818.567 1820.49 850.35C1850.06 881.394 1887.02 896.916 1931.37 896.916Z" fill="white"/>
<path d="M2478.31 201.763V1022.2H2323.07V201.763H2478.31Z" fill="white"/>
<path d="M2699.33 334.808C2671.98 334.808 2649.07 326.307 2630.58 309.307C2612.84 291.568 2603.97 269.764 2603.97 243.894C2603.97 218.024 2612.84 196.589 2630.58 179.589C2649.07 161.85 2671.98 152.98 2699.33 152.98C2726.69 152.98 2749.23 161.85 2766.97 179.589C2785.46 196.589 2794.7 218.024 2794.7 243.894C2794.7 269.764 2785.46 291.568 2766.97 309.307C2749.23 326.307 2726.69 334.808 2699.33 334.808ZM2775.85 407.982V1022.2H2620.6V407.982H2775.85Z" fill="white"/>
<path d="M3199.79 535.482H3092.23V1022.2H2934.77V535.482H2864.91V407.982H2934.77V376.938C2934.77 301.546 2956.21 246.111 2999.08 210.633C3041.96 175.154 3106.64 158.524 3193.13 160.741V291.568C3155.43 290.829 3129.19 297.112 3114.4 310.416C3099.62 323.72 3092.23 347.742 3092.23 382.482V407.982H3199.79V535.482Z" fill="white"/>
<path d="M3877 407.982L3496.66 1312.68H3331.44L3464.5 1006.68L3218.33 407.982H3392.42L3550.99 837.049L3711.78 407.982H3877Z" fill="white"/>
</svg>
