<svg width="591" height="591" viewBox="0 0 591 591" fill="none" xmlns="http://www.w3.org/2000/svg">
<path fill-rule="evenodd" clip-rule="evenodd" d="M295.5 0C132.3 0 0 132.3 0 295.5C0 458.7 132.3 591 295.5 591C458.7 591 591 458.7 591 295.5C591 132.3 458.7 0 295.5 0ZM468 165.72L440.552 191.85C438.201 193.604 436.997 196.571 437.499 199.466V391.548C436.997 394.429 438.215 397.396 440.566 399.165L467.369 425.28V431H332.464V425.266L360.271 398.494C362.965 395.813 362.965 394.971 362.965 390.878V235.68L285.666 430.501H275.217L185.318 235.68V366.245C184.53 371.765 186.379 377.256 190.292 381.222L226.412 424.71V430.429H124V424.781L160.12 381.222C163.961 377.271 165.739 371.68 164.75 366.245V215.298C165.165 211.119 163.531 206.969 160.407 204.13L128.343 165.72V160H228.046L305.145 327.849L372.913 160H468V165.72Z" fill="white"/>
</svg>
