<svg width="567" height="567" viewBox="0 0 567 567" fill="none" xmlns="http://www.w3.org/2000/svg">
<path fill-rule="evenodd" clip-rule="evenodd" d="M283.188 0C126.787 0 0 126.787 0 283.188C0 439.588 126.787 566.375 283.188 566.375C439.588 566.375 566.375 439.588 566.375 283.188C566.375 126.787 439.588 0 283.188 0ZM275.3 239.975L274.706 230.176C272.923 204.779 288.572 181.581 313.332 172.582C322.444 169.383 337.895 168.983 347.997 171.782C351.959 172.982 359.486 176.982 364.834 180.581L374.54 187.181L385.237 183.781C391.179 181.981 399.103 178.982 402.668 176.982C406.036 175.182 409.007 174.182 409.007 174.782C409.007 178.182 401.678 189.78 395.537 196.18C387.218 205.179 389.595 205.979 406.432 199.979C416.534 196.58 416.732 196.58 414.751 200.379C413.563 202.379 407.422 209.378 400.885 215.778C389.793 226.776 389.199 227.976 389.199 237.175C389.199 251.374 382.464 280.97 375.729 297.169C363.25 327.565 336.508 358.962 309.767 374.76C272.131 396.958 222.016 402.557 179.824 389.558C165.76 385.159 141.594 373.96 141.594 371.96C141.594 371.36 148.923 370.561 157.837 370.361C176.456 369.961 195.076 364.761 210.923 355.562L221.62 349.163L209.338 344.963C191.907 338.964 176.258 325.166 172.297 312.167C171.108 307.967 171.504 307.767 182.597 307.767L194.086 307.567L184.38 302.968C172.891 297.169 162.393 287.37 157.242 277.371C153.479 270.172 148.725 251.974 150.111 250.574C150.508 249.974 154.667 251.174 159.421 252.773C173.089 257.773 174.872 256.573 166.948 248.174C152.092 232.976 147.536 210.378 154.667 188.98L158.035 179.382L171.108 192.38C197.85 218.577 229.345 234.175 265.396 238.775L275.3 239.975Z" fill="white"/>
</svg>
